
        <svg xmlns="http://www.w3.org/2000/svg" xmlns:xlink="http://www.w3.org/1999/xlink" version="1.1" width="3181.2688821752267" 
        height="1186.7447129909365" viewBox="0 0 3181.2688821752267 1186.7447129909365">
			<rect fill="#e95420" width="3181.2688821752267" height="1186.7447129909365"/>
			<g transform="scale(9.06344410876133) translate(10, 10)">
				<defs id="SvgjsDefs3620"></defs><g id="SvgjsG3621" featureKey="symbolGroupContainer" transform="matrix(2.21875,0,0,2.21875,0.11093607172369957,0)" fill="#772953"><path xmlns="http://www.w3.org/2000/svg" d="M24.95 0a25 25 0 1 0 25 25 25 25 0 0 0-25-25zm0 46.91a22 22 0 1 1 22-22 22 22 0 0 1-22 21.99z"></path><path xmlns="http://www.w3.org/2000/svg" d="M24.95 3.65a21.3 21.3 0 1 0 21.3 21.3 21.33 21.33 0 0 0-21.3-21.3z"></path></g><g id="SvgjsG3622" featureKey="rZF8Vg-0" transform="matrix(1.1475409836065573,0,0,1.1475409836065573,18.852459016393443,18.773040927824425)" fill="#aea79f"><title xmlns="http://www.w3.org/2000/svg">invest</title><g xmlns="http://www.w3.org/2000/svg"><path d="M27,25H22A10,10,0,0,1,12,15a1,1,0,0,1,1-1h5A10,10,0,0,1,28,24,1,1,0,0,1,27,25ZM14.06,16A8,8,0,0,0,22,23h3.94A8,8,0,0,0,18,16Z"></path><path d="M43.23,22.9A10,10,0,0,1,36.16,20a1.09,1.09,0,0,1-.07-1.48L39.63,15a10,10,0,0,1,14.14,0,1.08,1.08,0,0,1,.33.74,1.05,1.05,0,0,1-.26.74L50.3,20A10,10,0,0,1,43.23,22.9Zm-5-3.74a8,8,0,0,0,10.63-.6l2.79-2.79a8,8,0,0,0-10.64.6Z"></path><path d="M32.07,17.93a1,1,0,0,1-.71-.29L29.23,15.5a10,10,0,0,1,0-14.14,1,1,0,0,1,1.41,0L32.77,3.5a10,10,0,0,1,0,14.14A1,1,0,0,1,32.07,17.93ZM30,3.53a8,8,0,0,0,.66,10.56L32,15.47a8,8,0,0,0-.66-10.56Z"></path><path d="M32,30a1,1,0,0,1-.71-.29l-5-5a1,1,0,0,1,1.42-1.42l5,5a1,1,0,0,1,0,1.42A1,1,0,0,1,32,30Z"></path><path d="M32,25a1,1,0,0,1-.71-.29,1,1,0,0,1,0-1.42l5-5a1,1,0,0,1,1.42,1.42l-5,5A1,1,0,0,1,32,25Z"></path><path d="M32,35.5a1,1,0,0,1-1-1V17a1,1,0,0,1,2,0V34.5A1,1,0,0,1,32,35.5Z"></path><path d="M36,42H28a1,1,0,0,1-.78-.37L23.44,36.9a2,2,0,0,1,.4-2.89,2,2,0,0,1,1.77-.27,6.45,6.45,0,0,1,.84.37A2.94,2.94,0,0,0,28,34.5a3,3,0,0,0,1.55-.39,5.21,5.21,0,0,1,4.89,0,3.3,3.3,0,0,0,3.11,0,5,5,0,0,1,.84-.37,2,2,0,0,1,1.77.27A2,2,0,0,1,41,35.65a2,2,0,0,1-.44,1.25l-3.78,4.73A1,1,0,0,1,36,42Zm-7.52-2h7L39,35.65a4.49,4.49,0,0,0-.56.24,5.21,5.21,0,0,1-4.89,0,3.3,3.3,0,0,0-3.11,0,5.21,5.21,0,0,1-4.89,0,3.89,3.89,0,0,0-.58-.25h0Z"></path><path d="M42.74,63H21.26a7.25,7.25,0,0,1-4.92-12.59l11-10.14A1,1,0,0,1,28,40h8a1,1,0,0,1,.68.27l11,10.14A7.25,7.25,0,0,1,42.74,63ZM28.39,42l-10.7,9.88A5.26,5.26,0,0,0,21.26,61H42.74a5.26,5.26,0,0,0,3.57-9.12L35.61,42Z"></path><path d="M32,56H30a1,1,0,0,1,0-2h2a1,1,0,0,0,0-2,3,3,0,0,1,0-6h2a1,1,0,0,1,0,2H32a1,1,0,0,0,0,2,3,3,0,0,1,0,6Z"></path><path d="M32,48a1,1,0,0,1-1-1V45a1,1,0,0,1,2,0v2A1,1,0,0,1,32,48Z"></path><path d="M32,58a1,1,0,0,1-1-1V55a1,1,0,0,1,2,0v2A1,1,0,0,1,32,58Z"></path><path d="M39,42H25a1,1,0,0,1,0-2H39a1,1,0,0,1,0,2Z"></path><path d="M39,42a1,1,0,0,1-.55-1.83l3-2a1,1,0,0,1,1.1,1.66l-3,2A.94.94,0,0,1,39,42Z"></path><path d="M42,44a.94.94,0,0,1-.55-.17l-3-2a1,1,0,1,1,1.1-1.66l3,2A1,1,0,0,1,42,44Z"></path><path d="M4,33a1,1,0,0,1-1-1,1,1,0,0,0-1-1,1,1,0,0,1,0-2,1,1,0,0,0,1-1,1,1,0,0,1,2,0,1,1,0,0,0,1,1,1,1,0,0,1,0,2,1,1,0,0,0-1,1A1,1,0,0,1,4,33Z"></path><path d="M58,24a1,1,0,0,1-1-1,1,1,0,0,0-1-1,1,1,0,0,1,0-2,1,1,0,0,0,1-1,1,1,0,0,1,2,0,1,1,0,0,0,1,1,1,1,0,0,1,0,2,1,1,0,0,0-1,1A1,1,0,0,1,58,24Z"></path><path d="M50,40a1,1,0,0,1-1-1,1,1,0,0,0-1-1,1,1,0,0,1,0-2,1,1,0,0,0,1-1,1,1,0,0,1,2,0,1,1,0,0,0,1,1,1,1,0,0,1,0,2,1,1,0,0,0-1,1A1,1,0,0,1,50,40Z"></path><path d="M16,46a1,1,0,0,1-1-1,1,1,0,0,0-1-1,1,1,0,0,1,0-2,1,1,0,0,0,1-1,1,1,0,0,1,2,0,1,1,0,0,0,1,1,1,1,0,0,1,0,2,1,1,0,0,0-1,1A1,1,0,0,1,16,46Z"></path><path d="M46,11a1,1,0,0,1-1-1,1,1,0,0,0-1-1,1,1,0,0,1,0-2,1,1,0,0,0,1-1,1,1,0,0,1,2,0,1,1,0,0,0,1,1,1,1,0,0,1,0,2,1,1,0,0,0-1,1A1,1,0,0,1,46,11Z"></path><path d="M16,11a1,1,0,0,1-1-1,1,1,0,0,0-1-1,1,1,0,0,1,0-2,1,1,0,0,0,1-1,1,1,0,0,1,2,0,1,1,0,0,0,1,1,1,1,0,0,1,0,2,1,1,0,0,0-1,1A1,1,0,0,1,16,11Z"></path><circle cx="39" cy="4" r="1"></circle><circle cx="54" cy="50" r="1"></circle><circle cx="11" cy="52" r="1"></circle><circle cx="61" cy="35" r="1"></circle><circle cx="39" cy="28" r="1"></circle><circle cx="7" cy="40" r="1"></circle><circle cx="22" cy="30" r="1"></circle><circle cx="9" cy="19" r="1"></circle></g></g><g id="SvgjsG3623" featureKey="6VBqdG-0" transform="matrix(2.535496800451883,0,0,2.535496800451883,129.22515151427223,7.14198841082662)" fill="#772953"><path d="M9.26 5.859999999999999 l2.16 0 l0 5.8 l0 8.34 l-2.16 0 l0 -1.72 c-0.26 0.84 -1.5 1.92 -3.38 1.92 c-2.36 0 -5.18 -1.76 -5.18 -5.4 c0 -3.58 2.82 -5.38 5.18 -5.38 c1.88 0 3.12 1.12 3.38 1.8 l0 -5.36 z M6.16 18.28 c1.62 0 3.2 -1.14 3.2 -3.48 c0 -2.32 -1.58 -3.46 -3.2 -3.46 s-3.36 1.16 -3.36 3.46 c0 2.32 1.74 3.48 3.36 3.48 z M20.88 12.280000000000001 c1.68 0.4 2.98 1.84 2.98 3.68 c0 2.5 -1.6 4.04 -5.08 4.04 l-5.06 0 l0 -14 l4.96 0 c2.82 0 4.22 1.6 4.22 3.44 c0 1.4 -0.84 2.38 -2.02 2.84 z M18.5 7.9399999999999995 l-2.58 0 l0 3.66 l2.58 0 c1.44 0 2.22 -0.76 2.22 -1.84 c0 -1.14 -0.78 -1.82 -2.22 -1.82 z M18.68 18.06 c2.06 0 2.98 -0.84 2.98 -2.34 c0 -1.28 -0.92 -2.32 -2.98 -2.32 l-2.76 0 l0 4.66 l2.76 0 z M29.42 20.16 c-2 0 -3.96 -1.3 -3.96 -4.54 l0 -6.02 l2.16 0 l0 5.9 c0 1.98 0.94 2.76 2.28 2.76 c1.72 0 2.84 -1.6 3.08 -2.62 l0 -6.04 l2.16 0 l0 10.4 l-2.16 0 l0 -2.2 c-0.2 0.64 -1.4 2.36 -3.56 2.36 z M45.5 5.859999999999999 l2.16 0 l0 5.8 l0 8.34 l-2.16 0 l0 -1.72 c-0.26 0.84 -1.5 1.92 -3.38 1.92 c-2.36 0 -5.18 -1.76 -5.18 -5.4 c0 -3.58 2.82 -5.38 5.18 -5.38 c1.88 0 3.12 1.12 3.38 1.8 l0 -5.36 z M42.400000000000006 18.28 c1.62 0 3.2 -1.14 3.2 -3.48 c0 -2.32 -1.58 -3.46 -3.2 -3.46 s-3.36 1.16 -3.36 3.46 c0 2.32 1.74 3.48 3.36 3.48 z M58.02 9.6 l2.16 0 l0 10.4 c0 3.14 -2.9 4.12 -5.02 4.12 c-1.42 0 -2.44 -0.34 -2.98 -0.7 l0 -1.8 c0.54 0.36 1.54 0.68 2.98 0.68 c1.82 0 2.86 -0.98 2.86 -2.3 l0 -1.72 c-0.26 0.84 -1.5 1.92 -3.38 1.92 c-2.36 0 -5.18 -1.76 -5.18 -5.4 c0 -3.58 2.82 -5.38 5.18 -5.38 c1.88 0 3.12 1.12 3.38 1.8 l0 -1.62 z M54.92 18.28 c1.62 0 3.2 -1.14 3.2 -3.48 c0 -2.32 -1.58 -3.46 -3.2 -3.46 s-3.36 1.16 -3.36 3.46 c0 2.32 1.74 3.48 3.36 3.48 z M67.36 9.42 c2.36 0 5.56 1.8 5.06 6.16 l-8.28 0 c0.32 1.86 1.8 2.78 3.48 2.78 c1.38 0 2.12 -0.36 2.88 -0.96 l1.22 1.16 c-0.92 1.04 -2.24 1.64 -4.16 1.64 c-2.64 0 -5.58 -1.8 -5.58 -5.38 c0 -3.6 3.02 -5.4 5.38 -5.4 z M67.36 11.28 c-1.34 0 -2.84 0.9 -3.2 2.72 l6.36 0 c-0.24 -1.82 -1.82 -2.72 -3.16 -2.72 z M79.58000000000001 11.4 l-2.2 0 l0 5.82 c0 0.56 0.2 1 0.84 1 c0.54 0 0.92 -0.1 1.36 -0.28 l0 1.82 c-0.44 0.22 -1.02 0.36 -1.92 0.36 c-1.3 0 -2.44 -0.52 -2.44 -2.82 l0 -5.9 l-1.44 0 l0 -1.8 l1.44 0 l0 -2.44 l2.16 0 l0 2.44 l2.2 0 l0 1.8 z"></path></g><g id="SvgjsG3624" featureKey="rMoqOW-0" transform="matrix(0.5648841933962956,0,0,0.5648841933962956,151.6045811723657,74.68977855127753)" fill="#772953"><path d="M6.12 9.42 c2.36 0 5.42 1.8 5.42 5.4 c0 3.64 -3.06 5.38 -5.42 5.38 s-5.42 -1.74 -5.42 -5.38 c0 -3.6 3.06 -5.4 5.42 -5.4 z M6.12 11.7 c-1.38 0 -2.92 1.06 -2.92 3.12 c0 2.04 1.54 3.1 2.92 3.1 s2.94 -1.06 2.94 -3.1 c0 -2.06 -1.56 -3.12 -2.94 -3.12 z M26.22 9.44 c1.98 0 3.94 1.3 3.94 4.56 l0 6 l-2.56 0 l0 -5.84 c0 -1.8 -0.78 -2.48 -1.98 -2.48 c-1.6 0 -2.6 1.52 -2.82 2.36 l0 5.96 l-2.58 0 l0 -10.4 l2.58 0 l0 2.04 c0.2 -0.58 1.34 -2.2 3.42 -2.2 z M44.1 9.42 c2.36 0 5.6 1.8 5.04 6.3 l-7.86 0 c0.34 1.52 1.6 2.3 3.1 2.3 c1.34 0 1.94 -0.32 2.68 -0.8 l1.44 1.38 c-0.92 0.98 -2.22 1.6 -4.2 1.6 c-2.62 0 -5.62 -1.8 -5.62 -5.38 c0 -3.6 3.06 -5.4 5.42 -5.4 z M44.1 11.62 c-1.16 0 -2.42 0.76 -2.8 2.24 l5.58 0 c-0.3 -1.48 -1.62 -2.24 -2.78 -2.24 z M78.68 5.859999999999999 l2.58 0 l0 5.5 l0 8.64 l-2.58 0 l0 -1.5 c-0.08 0.56 -1.18 1.7 -3.08 1.7 c-2.38 0 -5.16 -1.74 -5.16 -5.4 c0 -3.58 2.78 -5.38 5.16 -5.38 c1.9 0 3 1.2 3.08 1.54 l0 -5.1 z M75.94000000000001 17.92 c1.5 0 2.86 -1.04 2.86 -3.12 c0 -2.06 -1.36 -3.1 -2.86 -3.1 s-3 1.06 -3 3.1 c0 2.06 1.5 3.12 3 3.12 z M95.10000000000001 9.42 c1.9 0 3 1.2 3.08 1.54 l0 -1.36 l2.58 0 l0 10.4 l-2.58 0 l0 -1.5 c-0.08 0.56 -1.18 1.7 -3.08 1.7 c-2.38 0 -5.16 -1.74 -5.16 -5.4 c0 -3.58 2.78 -5.38 5.16 -5.38 z M95.44000000000001 11.7 c-1.5 0 -3 1.06 -3 3.1 c0 2.06 1.5 3.12 3 3.12 s2.86 -1.04 2.86 -3.12 c0 -2.06 -1.36 -3.1 -2.86 -3.1 z M118.20000000000002 9.58 l2.56 0 l-6.34 14.22 l-2.58 0 l1.88 -4.14 l-4.48 -10.08 l2.56 0 l3.2 7.28 z M146.96 9.42 c1.9 0 3 1.2 3.08 1.54 l0 -1.36 l2.58 0 l0 10.4 l-2.58 0 l0 -1.5 c-0.08 0.56 -1.18 1.7 -3.08 1.7 c-2.38 0 -5.16 -1.74 -5.16 -5.4 c0 -3.58 2.78 -5.38 5.16 -5.38 z M147.29999999999998 11.7 c-1.5 0 -3 1.06 -3 3.1 c0 2.06 1.5 3.12 3 3.12 s2.86 -1.04 2.86 -3.12 c0 -2.06 -1.36 -3.1 -2.86 -3.1 z M166.06 17.86 c0.56 0 0.94 -0.08 1.38 -0.24 l0 2.14 c-0.44 0.22 -1.08 0.36 -2.04 0.36 c-1.48 0 -2.76 -0.54 -2.76 -3.22 l0 -5.18 l-1.44 0 l0 -2.12 l1.44 0 l0 -2.44 l2.58 0 l0 2.44 l2.2 0 l0 2.12 l-2.2 0 l0 5.14 c0 0.52 0.16 1 0.84 1 z M193.82 9.42 c1.9 0 3 1.2 3.08 1.54 l0 -1.36 l2.58 0 l0 10.4 l-2.58 0 l0 -1.5 c-0.08 0.56 -1.18 1.7 -3.08 1.7 c-2.38 0 -5.16 -1.74 -5.16 -5.4 c0 -3.58 2.78 -5.38 5.16 -5.38 z M194.15999999999997 11.7 c-1.5 0 -3 1.06 -3 3.1 c0 2.06 1.5 3.12 3 3.12 s2.86 -1.04 2.86 -3.12 c0 -2.06 -1.36 -3.1 -2.86 -3.1 z M225.83999999999997 17.86 c0.56 0 0.94 -0.08 1.38 -0.24 l0 2.14 c-0.44 0.22 -1.08 0.36 -2.04 0.36 c-1.48 0 -2.76 -0.54 -2.76 -3.22 l0 -5.18 l-1.44 0 l0 -2.12 l1.44 0 l0 -2.44 l2.58 0 l0 2.44 l2.2 0 l0 2.12 l-2.2 0 l0 5.14 c0 0.52 0.16 1 0.84 1 z M238.45999999999995 5.859999999999999 l0 2.2 l-2.58 0 l0 -2.2 l2.58 0 z M238.45999999999995 9.6 l0 10.4 l-2.58 0 l0 -10.4 l2.58 0 z M260.84 9.44 c2.1 0 4.06 1.34 4.06 4.78 l0 5.78 l-2.56 0 l0 -5.74 c0 -1.58 -0.76 -2.58 -2.26 -2.58 c-1.44 0 -2.34 1.22 -2.58 2.38 l0 5.94 l-2.58 0 l0 -5.74 c0 -1.58 -0.98 -2.58 -2.26 -2.58 c-1.52 0 -2.36 1.14 -2.58 2.38 l0 5.94 l-2.58 0 l0 -10.4 l2.58 0 l0 2.12 c0.06 -0.6 1.08 -2.28 3.2 -2.28 c1.46 0 2.96 0.78 3.74 2.4 c0.3 -0.76 1.52 -2.4 3.82 -2.4 z M278.84 9.42 c2.36 0 5.6 1.8 5.04 6.3 l-7.86 0 c0.34 1.52 1.6 2.3 3.1 2.3 c1.34 0 1.94 -0.32 2.68 -0.8 l1.44 1.38 c-0.92 0.98 -2.22 1.6 -4.2 1.6 c-2.62 0 -5.62 -1.8 -5.62 -5.38 c0 -3.6 3.06 -5.4 5.42 -5.4 z M278.84 11.62 c-1.16 0 -2.42 0.76 -2.8 2.24 l5.58 0 c-0.3 -1.48 -1.62 -2.24 -2.78 -2.24 z"></path></g>
			</g>
		</svg>
	